999
"DXF R12 Output" (www.mydxf.blogspot.com)
 0 
SECTION
 2 
HEADER
 9 
$ACADVER
 1 
AC1009
 9 
$EXTMIN
 10 
 0 
 20 
 0 
 9 
$EXTMAX
 10 
 8.5 
 20 
 11 
 0 
ENDSEC
 0 
SECTION
 2 
ENTITIES
0
LINE
8
Layer 1
10
0.000000
20
15.000000
11
0.234375
21
11.484375
0
LINE
8
Layer 1
10
0.234375
20
11.484375
11
0.937500
21
8.437500
0
LINE
8
Layer 1
10
0.937500
20
8.437500
11
1.464844
21
7.089844
0
LINE
8
Layer 1
10
1.464844
20
7.089844
11
2.109375
21
5.859375
0
LINE
8
Layer 1
10
2.109375
20
5.859375
11
2.871094
21
4.746094
0
LINE
8
Layer 1
10
2.871094
20
4.746094
11
3.750000
21
3.750000
0
LINE
8
Layer 1
10
3.750000
20
3.750000
11
4.746094
21
2.871094
0
LINE
8
Layer 1
10
4.746094
20
2.871094
11
5.859375
21
2.109375
0
LINE
8
Layer 1
10
5.859375
20
2.109375
11
7.089844
21
1.464844
0
LINE
8
Layer 1
10
7.089844
20
1.464844
11
8.437500
21
0.937500
0
LINE
8
Layer 1
10
8.437500
20
0.937500
11
11.484375
21
0.234375
0
LINE
8
Layer 1
10
11.484375
20
0.234375
11
15.000000
21
0.000000
0
LINE
8
Layer 1
10
15.000000
20
0.000000
11
18.515625
21
0.234375
0
LINE
8
Layer 1
10
18.515625
20
0.234375
11
21.562500
21
0.937500
0
LINE
8
Layer 1
10
21.562500
20
0.937500
11
22.910156
21
1.464844
0
LINE
8
Layer 1
10
22.910156
20
1.464844
11
24.140625
21
2.109375
0
LINE
8
Layer 1
10
24.140625
20
2.109375
11
25.253906
21
2.871094
0
LINE
8
Layer 1
10
25.253906
20
2.871094
11
26.250000
21
3.750000
0
LINE
8
Layer 1
10
26.250000
20
3.750000
11
27.128906
21
4.746094
0
LINE
8
Layer 1
10
27.128906
20
4.746094
11
27.890625
21
5.859375
0
LINE
8
Layer 1
10
27.890625
20
5.859375
11
28.535156
21
7.089844
0
LINE
8
Layer 1
10
28.535156
20
7.089844
11
29.062500
21
8.437500
0
LINE
8
Layer 1
10
29.062500
20
8.437500
11
29.765625
21
11.484375
0
LINE
8
Layer 1
10
29.765625
20
11.484375
11
30.000000
21
15.000000
0
LINE
8
Layer 1
10
30.000000
20
15.000000
11
30.000000
21
40.000000
0
LINE
8
Layer 1
10
30.000000
20
40.000000
11
30.116166
21
41.767132
0
LINE
8
Layer 1
10
30.116166
20
41.767132
11
30.457952
21
43.338669
0
LINE
8
Layer 1
10
30.457952
20
43.338669
11
31.015288
21
44.744818
0
LINE
8
Layer 1
10
31.015288
20
44.744818
11
31.778103
21
46.015791
0
LINE
8
Layer 1
10
31.778103
20
46.015791
11
32.736327
21
47.181796
0
LINE
8
Layer 1
10
32.736327
20
47.181796
11
33.879892
21
48.273043
0
LINE
8
Layer 1
10
33.879892
20
48.273043
11
36.682760
21
50.352100
0
LINE
8
Layer 1
10
36.682760
20
50.352100
11
40.128963
21
52.661218
0
LINE
8
Layer 1
10
40.128963
20
52.661218
11
42.318303
21
53.903138
0
LINE
8
Layer 1
10
42.318303
20
53.903138
11
44.722985
21
55.073080
0
LINE
8
Layer 1
10
44.722985
20
55.073080
11
47.271395
21
56.073382
0
LINE
8
Layer 1
10
47.271395
20
56.073382
11
49.891919
21
56.806380
0
LINE
8
Layer 1
10
49.891919
20
56.806380
11
52.512946
21
57.174410
0
LINE
8
Layer 1
10
52.512946
20
57.174410
11
55.062860
21
57.079810
0
LINE
8
Layer 1
10
55.062860
20
57.079810
11
60.000000
21
55.000000
0
LINE
8
Layer 1
10
60.000000
20
55.000000
11
84.996500
21
55.000000
0
LINE
8
Layer 1
10
84.996500
20
55.000000
11
86.754261
21
55.079296
0
LINE
8
Layer 1
10
86.754261
20
55.079296
11
88.286829
21
55.306456
0
LINE
8
Layer 1
10
88.286829
20
55.306456
11
89.610102
21
55.665386
0
LINE
8
Layer 1
10
89.610102
20
55.665386
11
90.739977
21
56.139992
0
LINE
8
Layer 1
10
90.739977
20
56.139992
11
91.692350
21
56.714182
0
LINE
8
Layer 1
10
91.692350
20
56.714182
11
92.483120
21
57.371860
0
LINE
8
Layer 1
10
92.483120
20
57.371860
11
93.643437
21
58.873312
0
LINE
8
Layer 1
10
93.643437
20
58.873312
11
94.348106
21
60.515601
0
LINE
8
Layer 1
10
94.348106
20
60.515601
11
94.724305
21
62.169977
0
LINE
8
Layer 1
10
94.724305
20
62.169977
11
95.000000
21
65.000000
0
LINE
8
Layer 1
10
95.000000
20
65.000000
11
95.000000
21
165.000000
0
LINE
8
Layer 1
10
95.000000
20
165.000000
11
45.000000
21
165.000000
0
LINE
8
Layer 1
10
45.000000
20
165.000000
11
45.000000
21
95.000000
0
LINE
8
Layer 1
10
45.000000
20
95.000000
11
45.059306
21
93.030580
0
LINE
8
Layer 1
10
45.059306
20
93.030580
11
45.020834
21
90.976193
0
LINE
8
Layer 1
10
45.020834
20
90.976193
11
44.836850
21
88.570813
0
LINE
8
Layer 1
10
44.836850
20
88.570813
11
44.432285
21
86.086030
0
LINE
8
Layer 1
10
44.432285
20
86.086030
11
43.732069
21
83.793439
0
LINE
8
Layer 1
10
43.732069
20
83.793439
11
43.247632
21
82.804088
0
LINE
8
Layer 1
10
43.247632
20
82.804088
11
42.661131
21
81.964631
0
LINE
8
Layer 1
10
42.661131
20
81.964631
11
41.963181
21
81.309019
0
LINE
8
Layer 1
10
41.963181
20
81.309019
11
41.144400
21
80.871200
0
LINE
8
Layer 1
10
41.144400
20
80.871200
11
25.000000
21
75.000000
0
LINE
8
Layer 1
10
25.000000
20
75.000000
11
21.178575
21
73.706704
0
LINE
8
Layer 1
10
21.178575
20
73.706704
11
17.057039
21
71.977198
0
LINE
8
Layer 1
10
17.057039
20
71.977198
11
12.884937
21
69.767915
0
LINE
8
Layer 1
10
12.884937
20
69.767915
11
10.857906
21
68.469742
0
LINE
8
Layer 1
10
10.857906
20
68.469742
11
8.911812
21
67.035287
0
LINE
8
Layer 1
10
8.911812
20
67.035287
11
7.077850
21
65.459105
0
LINE
8
Layer 1
10
7.077850
20
65.459105
11
5.387212
21
63.735749
0
LINE
8
Layer 1
10
5.387212
20
63.735749
11
3.871091
21
61.859774
0
LINE
8
Layer 1
10
3.871091
20
61.859774
11
2.560680
21
59.825733
0
LINE
8
Layer 1
10
2.560680
20
59.825733
11
1.487172
21
57.628181
0
LINE
8
Layer 1
10
1.487172
20
57.628181
11
0.681761
21
55.261672
0
LINE
8
Layer 1
10
0.681761
20
55.261672
11
0.175639
21
52.720760
0
LINE
8
Layer 1
10
0.175639
20
52.720760
11
0.000000
21
50.000000
 0 
ENDSEC
 0 
EOF