999
"DXF R12 Output" (www.mydxf.blogspot.com)
 0 
SECTION
 2 
HEADER
 9 
$ACADVER
 1 
AC1009
 9 
$EXTMIN
 10 
 0 
 20 
 0 
 9 
$EXTMAX
 10 
 8.5 
 20 
 11 
 0 
ENDSEC
 0 
SECTION
 2 
ENTITIES
0
LINE
8
Layer 1
10
0.000000
20
15.000000
11
0.234375
21
11.484375
0
LINE
8
Layer 1
10
0.234375
20
11.484375
11
0.937500
21
8.437500
0
LINE
8
Layer 1
10
0.937500
20
8.437500
11
1.464844
21
7.089844
0
LINE
8
Layer 1
10
1.464844
20
7.089844
11
2.109375
21
5.859375
0
LINE
8
Layer 1
10
2.109375
20
5.859375
11
2.871094
21
4.746094
0
LINE
8
Layer 1
10
2.871094
20
4.746094
11
3.750000
21
3.750000
0
LINE
8
Layer 1
10
3.750000
20
3.750000
11
4.746094
21
2.871094
0
LINE
8
Layer 1
10
4.746094
20
2.871094
11
5.859375
21
2.109375
0
LINE
8
Layer 1
10
5.859375
20
2.109375
11
7.089844
21
1.464844
0
LINE
8
Layer 1
10
7.089844
20
1.464844
11
8.437500
21
0.937500
0
LINE
8
Layer 1
10
8.437500
20
0.937500
11
11.484375
21
0.234375
0
LINE
8
Layer 1
10
11.484375
20
0.234375
11
15.000000
21
0.000000
0
LINE
8
Layer 1
10
15.000000
20
0.000000
11
18.515625
21
0.234375
0
LINE
8
Layer 1
10
18.515625
20
0.234375
11
21.562500
21
0.937500
0
LINE
8
Layer 1
10
21.562500
20
0.937500
11
22.910156
21
1.464844
0
LINE
8
Layer 1
10
22.910156
20
1.464844
11
24.140625
21
2.109375
0
LINE
8
Layer 1
10
24.140625
20
2.109375
11
25.253906
21
2.871094
0
LINE
8
Layer 1
10
25.253906
20
2.871094
11
26.250000
21
3.750000
0
LINE
8
Layer 1
10
26.250000
20
3.750000
11
27.128906
21
4.746094
0
LINE
8
Layer 1
10
27.128906
20
4.746094
11
27.890625
21
5.859375
0
LINE
8
Layer 1
10
27.890625
20
5.859375
11
28.535156
21
7.089844
0
LINE
8
Layer 1
10
28.535156
20
7.089844
11
29.062500
21
8.437500
0
LINE
8
Layer 1
10
29.062500
20
8.437500
11
29.765625
21
11.484375
0
LINE
8
Layer 1
10
29.765625
20
11.484375
11
30.000000
21
15.000000
0
LINE
8
Layer 1
10
30.000000
20
15.000000
11
30.000000
21
40.000000
0
LINE
8
Layer 1
10
30.000000
20
40.000000
11
30.104622
21
41.786874
0
LINE
8
Layer 1
10
30.104622
20
41.786874
11
30.418370
21
43.406354
0
LINE
8
Layer 1
10
30.418370
20
43.406354
11
30.941072
21
44.871729
0
LINE
8
Layer 1
10
30.941072
20
44.871729
11
31.672551
21
46.196286
0
LINE
8
Layer 1
10
31.672551
20
46.196286
11
32.612634
21
47.393314
0
LINE
8
Layer 1
10
32.612634
20
47.393314
11
33.761146
21
48.476100
0
LINE
8
Layer 1
10
33.761146
20
48.476100
11
35.117913
21
49.457933
0
LINE
8
Layer 1
10
35.117913
20
49.457933
11
36.682760
21
50.352100
0
LINE
8
Layer 1
10
36.682760
20
50.352100
11
38.550438
21
51.302806
0
LINE
8
Layer 1
10
38.550438
20
51.302806
11
40.730877
21
52.181833
0
LINE
8
Layer 1
10
40.730877
20
52.181833
11
45.645645
21
53.656937
0
LINE
8
Layer 1
10
45.645645
20
53.656937
11
50.658281
21
54.641598
0
LINE
8
Layer 1
10
50.658281
20
54.641598
11
52.961054
21
54.907570
0
LINE
8
Layer 1
10
52.961054
20
54.907570
11
55.000000
21
55.000000
0
LINE
8
Layer 1
10
55.000000
20
55.000000
11
80.000000
21
55.000000
0
LINE
8
Layer 1
10
80.000000
20
55.000000
11
80.000000
21
70.000000
0
LINE
8
Layer 1
10
80.000000
20
70.000000
11
60.000000
21
70.000000
0
LINE
8
Layer 1
10
60.000000
20
70.000000
11
60.000000
21
110.000000
0
LINE
8
Layer 1
10
60.000000
20
110.000000
11
90.000000
21
110.000000
0
LINE
8
Layer 1
10
90.000000
20
110.000000
11
90.000000
21
117.500000
0
LINE
8
Layer 1
10
90.000000
20
117.500000
11
95.000000
21
115.000000
0
LINE
8
Layer 1
10
95.000000
20
115.000000
11
95.000000
21
130.000000
0
LINE
8
Layer 1
10
95.000000
20
130.000000
11
90.000000
21
127.500000
0
LINE
8
Layer 1
10
90.000000
20
127.500000
11
90.000000
21
135.000000
0
LINE
8
Layer 1
10
90.000000
20
135.000000
11
45.000000
21
135.000000
0
LINE
8
Layer 1
10
45.000000
20
135.000000
11
45.000000
21
95.000000
0
LINE
8
Layer 1
10
45.000000
20
95.000000
11
45.059306
21
93.030580
0
LINE
8
Layer 1
10
45.059306
20
93.030580
11
45.020834
21
90.976193
0
LINE
8
Layer 1
10
45.020834
20
90.976193
11
44.836850
21
88.570813
0
LINE
8
Layer 1
10
44.836850
20
88.570813
11
44.432285
21
86.086030
0
LINE
8
Layer 1
10
44.432285
20
86.086030
11
43.732069
21
83.793439
0
LINE
8
Layer 1
10
43.732069
20
83.793439
11
43.247632
21
82.804088
0
LINE
8
Layer 1
10
43.247632
20
82.804088
11
42.661131
21
81.964631
0
LINE
8
Layer 1
10
42.661131
20
81.964631
11
41.963181
21
81.309019
0
LINE
8
Layer 1
10
41.963181
20
81.309019
11
41.144400
21
80.871200
0
LINE
8
Layer 1
10
41.144400
20
80.871200
11
25.000000
21
75.000000
0
LINE
8
Layer 1
10
25.000000
20
75.000000
11
21.178575
21
73.706704
0
LINE
8
Layer 1
10
21.178575
20
73.706704
11
17.057039
21
71.977198
0
LINE
8
Layer 1
10
17.057039
20
71.977198
11
12.884937
21
69.767915
0
LINE
8
Layer 1
10
12.884937
20
69.767915
11
10.857906
21
68.469742
0
LINE
8
Layer 1
10
10.857906
20
68.469742
11
8.911812
21
67.035287
0
LINE
8
Layer 1
10
8.911812
20
67.035287
11
7.077850
21
65.459105
0
LINE
8
Layer 1
10
7.077850
20
65.459105
11
5.387212
21
63.735749
0
LINE
8
Layer 1
10
5.387212
20
63.735749
11
3.871091
21
61.859774
0
LINE
8
Layer 1
10
3.871091
20
61.859774
11
2.560680
21
59.825733
0
LINE
8
Layer 1
10
2.560680
20
59.825733
11
1.487172
21
57.628181
0
LINE
8
Layer 1
10
1.487172
20
57.628181
11
0.681761
21
55.261672
0
LINE
8
Layer 1
10
0.681761
20
55.261672
11
0.175639
21
52.720760
0
LINE
8
Layer 1
10
0.175639
20
52.720760
11
0.000000
21
50.000000
 0 
ENDSEC
 0 
EOF